# AST/ASF file generated using VICON BodyLanguage
# -----------------------------------------------
:version 1.10
:name VICON
:units
  mass 1.0
  length 0.45
  angle deg
:documentation
   .ast/.asf automatically generated from VICON data using
   VICON BodyBuilder and BodyLanguage model FoxedUp or BRILLIANT.MOD
:root
   order TX TY TZ RX RY RZ
   axis XYZ
   position 0 0 0  
   orientation 0 0 0 
:bonedata
  begin
     id 1 
     name lhipjoint
     direction 0.671379 -0.66392 0.329334 
     length 2.38647 
     axis 0 0 0  XYZ
  end
  begin
     id 2 
     name lfemur
     direction 0.34202 -0.939693 0  
     length 6.48179  
     axis 0 0 20  XYZ
    dof rx ry rz
    limits (-160.0 20.0)
           (-70.0 70.0)
           (-60.0 70.0)
  end
  begin
     id 3 
     name ltibia
     direction 0.34202 -0.939693 0   
     length 6.86524   
     axis 0 0 20   XYZ
    dof rx
    limits (-10.0 170.0)
  end
  begin
     id 4 
     name lfoot
     direction 0.204886 -0.562919 0.800715   
     length 1.73031   
     axis -90 7.62852e-016 20   XYZ
    dof rx rz
    limits (-45.0 90.0)
           (-70.0 20.0)
  end
  begin
     id 5 
     name ltoes
     direction 1.53548e-011 -4.21841e-011 1   
     length 0.828161   
     axis -90 7.62852e-016 20   XYZ
    dof rx
    limits (-90.0 20.0)
  end
  begin
     id 6 
     name rhipjoint
     direction -0.662732 -0.670855 0.332775   
     length 2.3618  
     axis 0 0 0  XYZ 
  end
  begin
     id 7 
     name rfemur
     direction -0.34202 -0.939693 0   
     length 6.3025   
     axis 0 0 -20   XYZ
    dof rx ry rz
    limits (-160.0 20.0)
           (-70.0 70.0)
           (-70.0 60.0)
  end
  begin
     id 8 
     name rtibia
     direction -0.34202 -0.939693 0   
     length 6.8732   
     axis 0 0 -20   XYZ
    dof rx
    limits (-10.0 170.0)
 end
 begin
     id 9 
     name rfoot
     direction -0.173856 -0.477665 0.861168   
     length 1.54784  
     axis -90 -7.62852e-016 -20   XYZ
    dof rx rz
    limits (-45.0 90.0)
           (-20.0 70.0)
  end
  begin
     id 10 
     name rtoes
     direction -1.53562e-011 -4.21802e-011 1   
     length 0.759618   
     axis -90 -7.62852e-016 -20   XYZ
    dof rx
    limits (-90.0 20.0)
  end
  begin
     id 11 
     name lowerback
     direction -0.0278357 0.999497 -0.0151789   
     length 1.97203   
     axis 0 0 0   XYZ
    dof rx ry rz
    limits (-20.0 45.0)
           (-30.0 30.0)
           (-30.0 30.0)
  end
  begin
     id 12 
     name upperback
     direction -0.00360622 0.997542 0.0699804   
     length 1.94709   
     axis 0 0 0   XYZ
    dof rx ry rz
    limits (-20.0 45.0)
           (-30.0 30.0)
           (-30.0 30.0)
  end
  begin
     id 13 
     name thorax
     direction 0.00907706 0.997048 0.0762461   
     length 1.95722   
     axis 0 0 0   XYZ
    dof rx ry rz
    limits (-20.0 45.0)
           (-30.0 30.0)
           (-30.0 30.0)
  end
  begin
     id 14 
     name lowerneck
     direction -0.0481835 0.99872 -0.0153927   
     length 1.63078   
     axis 0 0 0   XYZ
    dof rx ry rz
    limits (-20.0 45.0)
           (-30.0 30.0)
           (-30.0 30.0)
  end
  begin
     id 15 
     name upperneck
     direction 0.0859716 0.979226 -0.183644   
     length 1.62591   
     axis 0 0 0   XYZ
    dof rx ry rz
    limits (-20.0 45.0)
           (-30.0 30.0)
           (-30.0 30.0)
  end
  begin
     id 16
     name head
     direction 0.0324821 0.997629 -0.0606773  
     length 1.64811  
     axis 0 0 0   XYZ
    dof rx ry rz
    limits (-20.0 45.0)
           (-30.0 30.0)
           (-30.0 30.0)
  end
  begin
     id 17 
     name lclavicle
     direction 0.939609 0.311019 0.142835  
     length 3.70647  
     axis 0 0 0   XYZ
    dof ry rz
    limits (-20.0 10.0)
           (0.0 20.0)
  end
  begin
     id 18 
     name lhumerus
     direction 1 -4.48963e-011 -1.59838e-027   
     length 4.59207   
     axis 180 -30 -90   XYZ
    dof rx ry rz
    limits (-60.0 90.0)
           (-90.0 90.0)
           (-90.0 90.0)
  end
  begin
     id 19
     name lradius
     direction 1 -4.48957e-011 -1.3483e-026   
     length 2.98109   
     axis 180 -30 -90   XYZ
    dof rx
    limits (-10.0 170.0)
  end
  begin
     id 20
     name lwrist
     direction 1 -4.48954e-011 -3.11579e-026   
     length 1.49055   
     axis 2.00652e-014 90 90   XYZ
    dof ry
    limits (-180.0 0.0)
 end
  begin
     id 21 
     name lhand
     direction 1 -4.4911e-011 -6.23158e-026   
     length 0.480203   
     axis 3.97628e-014 90 90   XYZ
    dof rx rz
    limits (-90.0 90.0)
           (-45.0 45.0)
  end
  begin
     id 22 
     name lfingers
     direction 1 -4.48893e-011 -1.24632e-025   
     length 0.387152   
     axis 7.95256e-014 90 90   XYZ
    dof rx
    limits (0.0 90.0)
  end
  begin
     id 23
     name lthumb
     direction 0.707107 -6.35013e-011 0.707107   
     length 0.555875   
     axis -90 45 2.85299e-015   XYZ
    dof rx rz
    limits (-45.0 45.0)
           (-45.0 45.0)
  end
  begin
     id 24 
     name rclavicle
     direction -0.950396 0.30392 0.0661859   
     length 3.70894  
     axis 0 0 0   XYZ 
    dof ry rz
    limits (-10.0 20.0)
           (-20.0 0.0)
  end
  begin
     id 25 
     name rhumerus
     direction -1 -4.48957e-011 -2.96677e-027  
     length 4.76508   
     axis 180 30 90   XYZ
    dof rx ry rz
    limits (-90.0 60.0)
           (-90.0 90.0)
           (-90.0 90.0)
  end
  begin
     id 26 
     name rradius
     direction -1 -4.48974e-011 -1.44501e-026   
     length 2.78902   
     axis 180 30 90   XYZ
    dof rx
    limits (-10.0 170.0)
  end
  begin
     id 27 
     name rwrist
     direction -1 -4.48978e-011 -3.11579e-026   
     length 1.39451   
     axis 2.00652e-014 -90 -90   XYZ
    dof ry
    limits (-180.0 0.0)
  end
  begin
     id 28
     name rhand
     direction -1 -4.48956e-011 -6.23158e-026   
     length 0.721303   
     axis 3.97628e-014 -90 -90   XYZ
    dof rx rz
    limits (-90.0 90.0)
           (-45.0 45.0)
  end
  begin
     id 29
     name rfingers
     direction -1 -4.4899e-011 -1.24632e-025   
     length 0.581533   
     axis 7.95256e-014 -90 -90   XYZ
    dof rx
    limits (0.0 90.0)
  end
  begin
     id 30
     name rthumb
     direction -0.707107 -6.34911e-011 0.707107   
     length 0.834968   
     axis -90 -45 -2.85299e-015   XYZ
    dof rx rz
    limits (-45.0 45.0)
           (-45.0 45.0)
  end
:hierarchy
  begin
    root lhipjoint rhipjoint lowerback
    lhipjoint lfemur
    lfemur ltibia
    ltibia lfoot
    lfoot ltoes
    rhipjoint rfemur
    rfemur rtibia
    rtibia rfoot
    rfoot rtoes
    lowerback upperback
    upperback thorax
    thorax lowerneck lclavicle rclavicle
    lowerneck upperneck
    upperneck head
    lclavicle lhumerus
    lhumerus lradius
    lradius lwrist
    lwrist lhand lthumb
    lhand lfingers
    rclavicle rhumerus
    rhumerus rradius
    rradius rwrist
    rwrist rhand rthumb
    rhand rfingers
  end

#!OML:ASF I:\salsa\salsa 7_09\Patient 1\Session 1\dancerfemale.ASF
:FULLY-SPECIFIED
:DEGREES
593
root -1.33254 15.7248 3.15869 185.321 -211.71 -538.56
lowerback 3.76727 7.84497 1.47752
upperback -2.46608 10.4445 -3.91619
thorax -3.65024 5.13165 -5.50684
lowerneck -3.65423 -1.94756 -3.26952
upperneck -2.14864 -2.44525 2.13143
head 0.0160751 -1.1875 1.17037
rclavicle -3.16316e-014 3.97569e-015
rhumerus -37.716 -9.54351 -74.542
rradius 53.2069
rwrist 23.9872
rhand -7.92806 248.487
rfingers 7.12502
rthumb 17.9781 -637.676
lclavicle -3.16316e-014 3.97569e-015
lhumerus -44.9534 26.967 61.6908
lradius 45.8736
lwrist -43.5232
lhand -49.3838 0.578596
lfingers 7.12502
lthumb -21.9975 29.3477
rfemur -7.86021 -2.97889 12.7137
rtibia 23.6658
rfoot 18.6147 -33.8544
rtoes 63.5939
lfemur -25.3899 -22.0869 -2.00217
ltibia 47.089
lfoot -13.0189 -2.26996
ltoes -10.7612
594
root -1.64096 15.7184 3.22584 185.665 -215.497 -538.636
lowerback 3.45447 7.86618 1.79805
upperback -2.4297 10.5001 -3.60525
thorax -3.4334 5.1607 -5.30548
lowerneck -3.21264 -1.87007 -3.41674
upperneck -1.89385 -2.35801 1.82676
head 0.0162582 -1.14813 1.10364
rclavicle 1.18824e-013 -1.43125e-014
rhumerus -36.499 -8.52333 -76.0916
rradius 51.9595
rwrist 23.5253
rhand -7.31683 252.121
rfingers 7.12502
rthumb 18.5661 -641.255
lclavicle 1.18824e-013 -1.43125e-014
lhumerus -44.9881 27.0884 62.565
lradius 47.8592
lwrist -43.0606
lhand -48.9872 -3.63972
lfingers 7.12502
lthumb -21.6167 25.1737
rfemur -8.66883 -4.61914 14.3501
rtibia 25.1141
rfoot 19.6039 -36.0374
rtoes 63.3947
lfemur -26.5646 -19.1419 -3.11121
ltibia 49.2248
lfoot -14.3713 0.838474
ltoes -9.69479
595
root -1.94351 15.7001 3.29065 185.898 -218.937 -538.191
lowerback 3.60452 8.11249 1.37359
upperback -2.34097 10.8134 -3.33956
thorax -3.52233 5.32632 -4.84143
lowerneck -3.06157 -2.15972 -3.2088
upperneck -1.35006 -2.76255 1.41161
head 0.158611 -1.35784 0.93193
rclavicle 2.22515e-014 2.42517e-014
rhumerus -35.4727 -8.05416 -77.5684
rradius 50.976
rwrist 22.9795
rhand -6.55215 255.882
rfingers 7.12502
rthumb 19.3015 -644.945
lclavicle 2.22515e-014 2.42517e-014
lhumerus -45.1242 26.7023 63.543
lradius 50.125
lwrist -42.1801
lhand -48.9407 -6.95121
lfingers 7.12502
lthumb -21.5721 21.8673
rfemur -9.47649 -6.11649 15.4272
rtibia 27.1263
rfoot 19.977 -38.2717
rtoes 63.1546
lfemur -26.9245 -16.2289 -5.18221
ltibia 51.459
lfoot -15.8201 3.45644
ltoes -6.30121
596
root -2.24245 15.6887 3.35886 186.258 -222.002 -537.117
lowerback 4.10061 8.29814 0.309118
upperback -2.18208 11.0044 -3.05711
thorax -3.87021 5.43956 -4.08198
lowerneck -3.14082 -2.51248 -3.25737
upperneck -0.652623 -3.23105 1.07428
head 0.390939 -1.59939 0.824136
rclavicle -1.01306e-013 1.03368e-014
rhumerus -34.3382 -6.99942 -79.1928
rradius 50.1672
rwrist 22.2327
rhand -5.34807 259.887
rfingers 7.12502
rthumb 20.459 -648.829
lclavicle -1.01306e-013 1.03368e-014
lhumerus -45.6963 26.5117 64.2345
lradius 52.599
lwrist -40.561
lhand -49.4467 -9.92764
lfingers 7.12502
lthumb -22.058 18.8344
rfemur -9.86761 -7.58221 15.8963
rtibia 28.7457
rfoot 19.8836 -40.2096
rtoes 62.7503
lfemur -26.4746 -12.7983 -8.07036
ltibia 53.7139
lfoot -16.9503 5.57349
ltoes -5.24201
597
root -2.53136 15.6804 3.42045 186.657 -225.203 -536.113
lowerback 4.69399 8.26692 -0.639781
upperback -2.15032 10.9036 -2.66478
thorax -4.42741 5.40283 -3.29079
lowerneck -3.06497 -2.84768 -3.39617
upperneck -0.0144802 -3.67305 0.68684
head 0.578769 -1.82939 0.717619
rclavicle -4.82674e-015 -8.15017e-015
rhumerus -33.3602 -5.46002 -80.9795
rradius 49.5542
rwrist 21.4634
rhand -4.604 263.55
rfingers 7.12502
rthumb 21.1739 -652.414
lclavicle -4.82674e-015 -8.15017e-015
lhumerus -46.9564 26.6427 64.3083
lradius 55.4278
lwrist -39.0702
lhand -50.0612 -13.1176
lfingers 7.12502
lthumb -22.6479 15.5736
rfemur -9.92795 -9.33524 16.4076
rtibia 29.5631
rfoot 19.8362 -41.6994
rtoes 62.2881
lfemur -25.9771 -9.15216 -10.7298
ltibia 55.9388
lfoot -17.8233 6.19964
ltoes -3.33732
598
root -2.79934 15.6784 3.47743 186.377 -228.546 -536.482
lowerback 4.82926 8.22366 -0.635792
upperback -2.23297 10.867 -1.93903
thorax -4.7317 5.38447 -2.59418
lowerneck -2.80563 -3.3256 -3.80898
upperneck 0.441404 -4.30142 0.483838
head 0.694315 -2.15101 0.713728
rclavicle -5.04439e-014 -2.68359e-015
rhumerus -32.5619 -3.85519 -82.4782
rradius 49.0975
rwrist 20.0874
rhand -3.64339 267.035
rfingers 7.12502
rthumb 22.0964 -655.793
lclavicle -5.04439e-014 -2.68359e-015
lhumerus -48.1476 26.6132 64.4186
lradius 58.2489
lwrist -37.6421
lhand -50.826 -16.4505
lfingers 7.12502
lthumb -23.3816 12.1492
rfemur -9.78849 -10.6365 17.9986
rtibia 29.3842
rfoot 20.6228 -42.8116
rtoes 62.1667
lfemur -25.6073 -5.59434 -12.184
ltibia 58.1639
lfoot -18.0879 6.00895
ltoes -1.96274
599
root -3.05188 15.6903 3.54013 184.995 -231.674 -538.382
lowerback 4.67668 8.1971 -0.0179776
upperback -2.37752 10.9218 -0.791179
thorax -4.90622 5.40451 -1.7582
lowerneck -2.40964 -3.81018 -4.69883
upperneck 0.636636 -4.93387 0.489152
head 0.727696 -2.47147 0.858396
rclavicle 3.27575e-014 1.98785e-016
rhumerus -31.9578 -1.95572 -83.8089
rradius 48.8551
rwrist 18.1823
rhand -3.011 89.6835
rfingers 7.12502
rthumb 22.7034 -659.001
lclavicle 3.27575e-014 1.98785e-016
lhumerus -49.4088 26.9145 64.2836
lradius 61.0011
lwrist -37.1769
lhand -50.9791 -20.5873
lfingers 7.12502
lthumb -23.5285 7.99368
rfemur -9.36142 -11.0627 20.6129
rtibia 28.2848
rfoot 22.0913 -44.1247
rtoes 62.0633
lfemur -25.0327 -1.99125 -12.4135
ltibia 60.256
lfoot -18.4381 5.361
ltoes -0.704507
600
root -3.28841 15.7077 3.60502 182.977 -234.521 -541.385
lowerback 4.0003 8.10585 1.21586
upperback -2.63334 10.9315 0.271059
thorax -4.77498 5.39391 -1.24926
lowerneck -1.94186 -4.2403 -5.45436
upperneck 0.593193 -5.5123 0.587185
head 0.677842 -2.76073 1.01564
rclavicle -1.14634e-013 -7.95139e-015
rhumerus -31.507 -0.0247967 -85.4628
rradius 49.0388
rwrist 15.7223
rhand -2.01298 86.8044
rfingers 7.12502
rthumb 23.6609 -661.759
lclavicle -1.14634e-013 -7.95139e-015
lhumerus -50.4017 27.1072 63.5399
lradius 63.613
lwrist -37.5339
lhand -50.6469 -24.4548
lfingers 7.12502
lthumb -23.2099 4.16668
rfemur -9.18591 -11.0823 23.7996
rtibia 26.6133
rfoot 23.892 -45.6907
rtoes 61.7496
lfemur -24.4615 0.622058 -12.07
ltibia 62.1696
lfoot -18.8307 5.21464
ltoes -1.34879
601
root -3.50631 15.7367 3.65916 181.512 -237.52 -544.097
lowerback 2.73056 8.07757 2.42984
upperback -2.97356 10.9719 0.839116
thorax -4.30662 5.4033 -1.14007
lowerneck -1.49325 -4.86665 -5.65917
upperneck 0.439471 -6.37269 0.664697
head 0.591069 -3.18839 1.07178
rclavicle -2.43294e-014 -1.35174e-014
rhumerus -31.1205 1.04326 -87.2382
rradius 49.5697
rwrist 12.925
rhand -0.983242 84.0795
rfingers 7.12502
rthumb 24.6483 -664.353
lclavicle -2.43294e-014 -1.35174e-014
lhumerus -50.4092 26.4316 62.8885
lradius 65.9829
lwrist -37.8485
lhand -50.6274 -27.7998
lfingers 7.12502
lthumb -23.1912 0.823972
rfemur -9.58372 -11.1959 26.5467
rtibia 24.7932
rfoot 25.8741 -47.2504
rtoes 61.1652
lfemur -24.1531 1.68493 -12.2764
ltibia 63.6448
lfoot -19.3188 5.68739
ltoes -2.65151
602
root -3.72695 15.7497 3.70828 180.493 -241.064 -546.085
lowerback 1.60985 8.0426 2.63727
upperback -3.3642 10.9458 1.37758
thorax -4.15733 5.40643 -0.570693
lowerneck -1.22125 -5.69984 -5.64208
upperneck 0.523158 -7.49487 0.367325
head 0.593293 -3.75173 0.963262
rclavicle -7.51779e-014 -2.34566e-014
rhumerus -30.9028 1.53412 -88.3261
rradius 50.223
rwrist 10.725
rhand -0.458657 81.8955
rfingers 7.12502
rthumb 25.151 -666.468
lclavicle -7.51779e-014 -2.34566e-014
lhumerus -49.8375 25.0237 62.7961
lradius 68.1667
lwrist -38.1741
lhand -50.9666 -30.5595
lfingers 7.12502
lthumb -23.5166 -1.977
rfemur -10.1954 -11.8119 28.5775
rtibia 23.2439
rfoot 27.7071 -48.9075
rtoes 60.3759
lfemur -23.8085 2.01258 -13.0647
ltibia 64.7499
lfoot -19.5849 5.7613
ltoes -5.07684
